<svg xmlns="http://www.w3.org/2000/svg" xmlns:xlink="http://www.w3.org/1999/xlink" width="400" zoomAndPan="magnify" viewBox="0 0 300 299.999988" height="400" preserveAspectRatio="xMidYMid meet" version="1.0"><defs><g/><clipPath id="968daf6927"><path d="M 0.601562 0.398438 L 258.359375 0.398438 L 258.359375 292 L 0.601562 292 Z M 0.601562 0.398438 " clip-rule="nonzero"/></clipPath><clipPath id="b27f5bd981"><rect x="0" width="259" y="0" height="292"/></clipPath><clipPath id="cb03dae587"><path d="M 65 79 L 184 79 L 184 126.992188 L 65 126.992188 Z M 65 79 " clip-rule="nonzero"/></clipPath><clipPath id="165c9b35a3"><path d="M 28.167969 22 L 217.320312 22 L 217.320312 126.992188 L 28.167969 126.992188 Z M 28.167969 22 " clip-rule="nonzero"/></clipPath><clipPath id="21ff8e15c1"><path d="M 101.601562 101.066406 L 113.046875 101.066406 L 113.046875 112.511719 L 101.601562 112.511719 Z M 101.601562 101.066406 " clip-rule="nonzero"/></clipPath><clipPath id="9cc49dec98"><path d="M 107.324219 101.066406 C 104.164062 101.066406 101.601562 103.628906 101.601562 106.789062 C 101.601562 109.949219 104.164062 112.511719 107.324219 112.511719 C 110.484375 112.511719 113.046875 109.949219 113.046875 106.789062 C 113.046875 103.628906 110.484375 101.066406 107.324219 101.066406 Z M 107.324219 101.066406 " clip-rule="nonzero"/></clipPath><clipPath id="cb9d2b1da4"><path d="M 0.601562 0.0664062 L 12.046875 0.0664062 L 12.046875 11.511719 L 0.601562 11.511719 Z M 0.601562 0.0664062 " clip-rule="nonzero"/></clipPath><clipPath id="e746dd400a"><path d="M 6.324219 0.0664062 C 3.164062 0.0664062 0.601562 2.628906 0.601562 5.789062 C 0.601562 8.949219 3.164062 11.511719 6.324219 11.511719 C 9.484375 11.511719 12.046875 8.949219 12.046875 5.789062 C 12.046875 2.628906 9.484375 0.0664062 6.324219 0.0664062 Z M 6.324219 0.0664062 " clip-rule="nonzero"/></clipPath><clipPath id="7e5b2db55c"><rect x="0" width="13" y="0" height="12"/></clipPath><clipPath id="282d4b8269"><path d="M 139.257812 101.066406 L 150.703125 101.066406 L 150.703125 112.511719 L 139.257812 112.511719 Z M 139.257812 101.066406 " clip-rule="nonzero"/></clipPath><clipPath id="af76c3520b"><path d="M 144.980469 101.066406 C 141.820312 101.066406 139.257812 103.628906 139.257812 106.789062 C 139.257812 109.949219 141.820312 112.511719 144.980469 112.511719 C 148.144531 112.511719 150.703125 109.949219 150.703125 106.789062 C 150.703125 103.628906 148.144531 101.066406 144.980469 101.066406 Z M 144.980469 101.066406 " clip-rule="nonzero"/></clipPath><clipPath id="1e4ee08bc6"><path d="M 0.257812 0.0664062 L 11.703125 0.0664062 L 11.703125 11.511719 L 0.257812 11.511719 Z M 0.257812 0.0664062 " clip-rule="nonzero"/></clipPath><clipPath id="f23e8db69f"><path d="M 5.980469 0.0664062 C 2.820312 0.0664062 0.257812 2.628906 0.257812 5.789062 C 0.257812 8.949219 2.820312 11.511719 5.980469 11.511719 C 9.144531 11.511719 11.703125 8.949219 11.703125 5.789062 C 11.703125 2.628906 9.144531 0.0664062 5.980469 0.0664062 Z M 5.980469 0.0664062 " clip-rule="nonzero"/></clipPath><clipPath id="0b4e122fc8"><rect x="0" width="12" y="0" height="12"/></clipPath><clipPath id="e8445aaec2"><rect x="0" width="259" y="0" height="292"/></clipPath></defs><rect x="-30" width="360" fill="#ffffff" y="-29.999999" height="359.999986" fill-opacity="1"/><rect x="-30" width="360" fill="#f4d06f" y="-29.999999" height="359.999986" fill-opacity="1"/><g transform="matrix(1, 0, 0, 1, 21, 8)"><g clip-path="url(#e8445aaec2)"><g clip-path="url(#968daf6927)"><g><g clip-path="url(#b27f5bd981)"><g fill="#000000" fill-opacity="1"><g transform="translate(0.817418, 227.585596)"><g><path d="M 111.546875 -58.34375 C 111.546875 -64.863281 110.265625 -71 107.703125 -76.75 C 105.148438 -82.5 101.5625 -87.507812 96.9375 -91.78125 L 95.453125 -91.78125 C 97.910156 -88 99.140625 -84.003906 99.140625 -79.796875 C 99.140625 -71.316406 96.457031 -64.742188 91.09375 -60.078125 C 85.738281 -55.421875 75.347656 -51.269531 59.921875 -47.625 C 52.492188 -45.875 47.484375 -44.578125 44.890625 -43.734375 C 42.296875 -42.890625 40.28125 -41.90625 38.84375 -40.78125 C 37.40625 -39.664062 36.6875 -37.953125 36.6875 -35.640625 C 36.6875 -31.859375 38.894531 -29.085938 43.3125 -27.328125 C 47.726562 -25.578125 54.457031 -24.703125 63.5 -24.703125 C 78.914062 -24.703125 90.773438 -27.644531 99.078125 -33.53125 C 107.390625 -39.425781 111.546875 -47.695312 111.546875 -58.34375 Z M 116.375 -101.140625 C 124.925781 -95.878906 131.410156 -89.515625 135.828125 -82.046875 C 140.242188 -74.585938 142.453125 -66.234375 142.453125 -56.984375 C 142.453125 -38.265625 135.617188 -23.664062 121.953125 -13.1875 C 108.285156 -2.71875 88.867188 2.515625 63.703125 2.515625 C 45.765625 2.515625 31.75 -0.722656 21.65625 -7.203125 C 11.5625 -13.679688 6.515625 -22.773438 6.515625 -34.484375 C 6.515625 -41.703125 8.160156 -47.640625 11.453125 -52.296875 C 14.753906 -56.960938 19.242188 -60.675781 24.921875 -63.4375 C 30.597656 -66.207031 38.445312 -68.71875 48.46875 -70.96875 C 55.476562 -72.507812 60.472656 -73.835938 63.453125 -74.953125 C 66.429688 -76.078125 68.617188 -77.410156 70.015625 -78.953125 C 71.421875 -80.492188 72.125 -82.421875 72.125 -84.734375 C 72.125 -90.617188 68.023438 -93.5625 59.828125 -93.5625 C 51.617188 -93.5625 47.515625 -90.757812 47.515625 -85.15625 C 47.515625 -82.988281 47.972656 -81.023438 48.890625 -79.265625 L 19.140625 -68.546875 C 16.054688 -74.296875 14.515625 -80.078125 14.515625 -85.890625 C 14.515625 -88.066406 14.96875 -90.03125 15.875 -91.78125 L 6.734375 -91.78125 L 6.734375 -118.796875 L 116.375 -118.796875 Z M 65.921875 -43.953125 Z M 65.921875 -43.953125 "/></g></g></g><g fill="#000000" fill-opacity="1"><g transform="translate(148.093745, 227.585596)"><g><path d="M 26.8125 -38.90625 L 26.8125 -38.796875 C 26.8125 -34.234375 28.382812 -30.476562 31.53125 -27.53125 C 34.6875 -24.59375 39.140625 -23.125 44.890625 -23.125 C 52.953125 -23.125 59.171875 -25.695312 63.546875 -30.84375 C 67.929688 -36 70.125 -43.414062 70.125 -53.09375 C 70.125 -62.695312 68.195312 -70.25 64.34375 -75.75 C 60.488281 -81.25 55.226562 -85.296875 48.5625 -87.890625 C 41.90625 -90.484375 31.1875 -91.78125 16.40625 -91.78125 L -39 -91.78125 L -40.46875 -118.796875 L 24.921875 -118.796875 C 39.210938 -118.796875 50.789062 -117.585938 59.65625 -115.171875 C 68.53125 -112.753906 76.222656 -108.617188 82.734375 -102.765625 C 89.253906 -96.910156 93.96875 -89.914062 96.875 -81.78125 C 99.789062 -73.65625 101.25 -64.09375 101.25 -53.09375 C 101.25 -35.851562 96.515625 -22.273438 87.046875 -12.359375 C 77.585938 -2.441406 64.691406 2.515625 48.359375 2.515625 C 34.203125 2.515625 23.160156 -0.863281 15.234375 -7.625 C 7.316406 -14.382812 3.359375 -23.828125 3.359375 -35.953125 C 3.359375 -44.992188 5.953125 -52.367188 11.140625 -58.078125 C 16.328125 -63.796875 23.160156 -66.65625 31.640625 -66.65625 C 38.296875 -66.65625 43.484375 -65.113281 47.203125 -62.03125 C 50.921875 -58.945312 52.78125 -54.8125 52.78125 -49.625 C 52.78125 -44.851562 51.515625 -41.097656 48.984375 -38.359375 C 46.460938 -35.628906 43.066406 -34.265625 38.796875 -34.265625 C 33.535156 -34.265625 29.539062 -35.8125 26.8125 -38.90625 Z M 26.8125 -38.90625 "/></g></g></g></g></g></g><g clip-path="url(#cb03dae587)"><path fill="#000000" d="M 124.597656 99.070312 C 123.410156 99.070312 122.238281 98.882812 121.074219 98.507812 L 67.074219 80.523438 C 66.09375 83.066406 65.605469 86.339844 65.605469 91.117188 C 69.128906 93.152344 72.5625 97.246094 72.5625 104.304688 C 72.5625 108.632812 70.394531 111.742188 68.535156 113.808594 C 76.546875 123.089844 98.589844 129.761719 124.605469 129.761719 C 157.382812 129.761719 183.949219 119.171875 183.949219 106.128906 C 183.949219 103.246094 183.949219 91.476562 183.949219 79.925781 L 128.105469 98.507812 C 126.957031 98.882812 125.785156 99.070312 124.597656 99.070312 Z M 124.597656 99.070312 " fill-opacity="1" fill-rule="nonzero"/></g><g clip-path="url(#165c9b35a3)"><path fill="#000000" d="M 214.785156 52.425781 L 125.769531 22.800781 C 125 22.546875 124.191406 22.546875 123.425781 22.800781 L 34.414062 52.425781 C 32.898438 52.929688 31.875 54.34375 31.875 55.933594 C 31.875 57.527344 32.898438 58.941406 34.414062 59.445312 L 54.820312 66.238281 C 50.125 71.671875 47.394531 79.339844 46.390625 91.8125 C 43.164062 93.328125 40.886719 96.566406 40.886719 100.375 C 40.886719 104.246094 43.21875 107.542969 46.539062 109.03125 C 43.640625 134.25 28.515625 142.65625 28.515625 144.8125 C 28.515625 145.90625 40.226562 152.21875 43.011719 152.21875 C 47.3125 152.21875 57.636719 144.929688 57.636719 129.191406 C 57.636719 119.917969 56.800781 112.910156 55.917969 107.941406 C 58.296875 106.214844 59.953125 103.542969 59.953125 100.375 C 59.953125 96.914062 58.015625 94.027344 55.25 92.359375 C 56.8125 71.777344 63.1875 68.332031 78.601562 61.949219 C 80.144531 61.34375 83.058594 60.164062 84.742188 59.46875 C 87.769531 58.222656 90.507812 57.113281 93.132812 56.0625 C 101.609375 52.699219 108.777344 49.996094 114.242188 47.988281 C 120.230469 45.855469 122.914062 45.078125 123.011719 45.046875 C 125.304688 44.277344 127.855469 45.515625 128.640625 47.847656 C 129.417969 50.171875 128.171875 52.691406 125.835938 53.476562 C 125.660156 53.535156 115.246094 56.503906 88.148438 67.6875 C 86.402344 68.40625 84.742188 69.058594 83.164062 69.679688 C 79.949219 70.949219 77.289062 71.960938 75.054688 72.984375 L 123.425781 89.078125 C 123.8125 89.195312 124.199219 89.265625 124.597656 89.265625 C 125 89.265625 125.382812 89.195312 125.769531 89.070312 L 214.785156 59.445312 C 216.296875 58.941406 217.320312 57.527344 217.320312 55.933594 C 217.320312 54.34375 216.296875 52.929688 214.785156 52.425781 Z M 214.785156 52.425781 " fill-opacity="1" fill-rule="nonzero"/></g><g clip-path="url(#21ff8e15c1)"><g clip-path="url(#9cc49dec98)"><g transform="matrix(1, 0, 0, 1, 101, 101)"><g clip-path="url(#7e5b2db55c)"><g clip-path="url(#cb9d2b1da4)"><g clip-path="url(#e746dd400a)"><path fill="#f4d06f" d="M 0.601562 0.0664062 L 12.046875 0.0664062 L 12.046875 11.511719 L 0.601562 11.511719 Z M 0.601562 0.0664062 " fill-opacity="1" fill-rule="nonzero"/></g></g></g></g></g></g><g clip-path="url(#282d4b8269)"><g clip-path="url(#af76c3520b)"><g transform="matrix(1, 0, 0, 1, 139, 101)"><g clip-path="url(#0b4e122fc8)"><g clip-path="url(#1e4ee08bc6)"><g clip-path="url(#f23e8db69f)"><path fill="#f4d06f" d="M 0.257812 0.0664062 L 11.703125 0.0664062 L 11.703125 11.511719 L 0.257812 11.511719 Z M 0.257812 0.0664062 " fill-opacity="1" fill-rule="nonzero"/></g></g></g></g></g></g></g></g></svg>